# xmcd CD database file
#
# Track frame offsets:
#	150
#	53049
#	84077
#	104520
#	116834
#	133611
#	145833
#	160081
#	206056
#
# Disc length: 3297 seconds
#
# Revision: 0
# Processed by: cddbd v1.5PL3 Copyright (c) Steve Scherf et al.
# Submitted via: CDex 1.51
#
DISCID=780cdf09
DTITLE=Chris Hinze Combination - Saliah
DYEAR=1985
DGENRE=Jazz
TTITLE0=Awah Awah
TTITLE1=Saliah
TTITLE2=African Rapness
TTITLE3=The Suite of Pangaea Pt 1 Pang
TTITLE4=The Suite of Pangaea Pt 2 Laur
TTITLE5=The Suite of Pangaea Pt 3 Gond
TTITLE6=The Suite of Pangaea Pt 4 The
TTITLE7=Ko - Ko OK - Ko
TTITLE8=Aeon
EXTD=YEAR: 1985
EXTT0=
EXTT1=
EXTT2=
EXTT3=
EXTT4=
EXTT5=
EXTT6=
EXTT7=
EXTT8=
PLAYORDER=
